<svg xmlns="http://www.w3.org/2000/svg" viewBox="0 0 512 512">
  <rect width="512" height="512" rx="96" fill="#c1121f"/>
  <path d="M256 96 L340 128 L340 240 C340 296 304 344 256 368 C208 344 172 296 172 240 L172 128 Z" fill="white" opacity="0.15"/>
  <path d="M256 112 L328 140 L328 240 C328 290 296 334 256 356 C216 334 184 290 184 240 L184 140 Z" fill="none" stroke="white" stroke-width="8" stroke-linejoin="round"/>
  <circle cx="256" cy="220" r="28" fill="white"/>
  <rect x="244" y="240" width="24" height="32" rx="4" fill="white"/>
  <rect x="238" y="232" width="36" height="48" rx="6" fill="white"/>
  <circle cx="256" cy="220" r="22" fill="#c1121f"/>
  <circle cx="256" cy="218" r="10" fill="white"/>
  <rect x="252" y="224" width="8" height="14" rx="2" fill="white"/>
</svg>
